<svg width="181" height="50" viewBox="0 0 181 50" fill="none" xmlns="http://www.w3.org/2000/svg">
<path d="M40 0H10C4.47715 0 0 4.47715 0 10V40C0 45.5228 4.47715 50 10 50H40C45.5228 50 50 45.5228 50 40V10C50 4.47715 45.5228 0 40 0Z" fill="#3B82F6"/>
<path d="M26.004 9.5625H31.8633V29.25C31.8633 31.0599 31.4596 32.6615 30.6523 34.0547C29.8581 35.4349 28.7318 36.5026 27.2734 37.2578C25.8151 38.013 24.1681 38.3906 22.3321 38.3906C19.3243 38.3906 16.9805 37.6289 15.3008 36.1055C13.6211 34.569 12.7812 32.401 12.7812 29.6016H18.6798C18.6798 30.9948 18.9727 32.0234 19.5586 32.6875C20.1445 33.3516 21.0691 33.6836 22.3321 33.6836C23.4519 33.6836 24.3438 33.2995 25.0078 32.5312C25.6719 31.763 26.004 30.6693 26.004 29.25V9.5625Z" fill="white"/>
<path d="M70.1129 14.0909H74.6186V27.1648C74.6125 28.3897 74.3201 29.4607 73.7415 30.3778C73.1629 31.2888 72.3627 31.9967 71.3409 32.5014C70.3253 33.0062 69.1496 33.2585 67.8139 33.2585C66.6321 33.2585 65.558 33.0523 64.5916 32.6399C63.6314 32.2275 62.8651 31.5874 62.2926 30.7195C61.7263 29.8516 61.4463 28.7405 61.4524 27.3864H66.0043C66.0227 27.8726 66.1151 28.2881 66.2812 28.6328C66.4536 28.9714 66.6906 29.2268 66.9922 29.3991C67.2938 29.5715 67.6539 29.6577 68.0724 29.6577C68.5095 29.6577 68.8788 29.5653 69.1804 29.3807C69.482 29.1899 69.7098 28.9098 69.8636 28.5405C70.0237 28.1712 70.1068 27.7126 70.1129 27.1648V14.0909ZM84.1078 33.2678C82.6182 33.2678 81.3379 32.9631 80.2669 32.3537C79.202 31.7382 78.3803 30.8826 77.8017 29.7869C77.2292 28.6851 76.943 27.4079 76.943 25.9553C76.943 24.4964 77.2292 23.2192 77.8017 22.1236C78.3803 21.0218 79.202 20.1662 80.2669 19.5568C81.3379 18.9413 82.6182 18.6335 84.1078 18.6335C85.5974 18.6335 86.8746 18.9413 87.9395 19.5568C89.0105 20.1662 89.8322 21.0218 90.4047 22.1236C90.9833 23.2192 91.2726 24.4964 91.2726 25.9553C91.2726 27.4079 90.9833 28.6851 90.4047 29.7869C89.8322 30.8826 89.0105 31.7382 87.9395 32.3537C86.8746 32.9631 85.5974 33.2678 84.1078 33.2678ZM84.1355 29.8608C84.6771 29.8608 85.1357 29.6946 85.5112 29.3622C85.8867 29.0298 86.1729 28.5682 86.3699 27.9773C86.573 27.3864 86.6745 26.7031 86.6745 25.9276C86.6745 25.1397 86.573 24.4503 86.3699 23.8594C86.1729 23.2685 85.8867 22.8068 85.5112 22.4744C85.1357 22.142 84.6771 21.9759 84.1355 21.9759C83.5753 21.9759 83.1014 22.142 82.7136 22.4744C82.332 22.8068 82.0396 23.2685 81.8365 23.8594C81.6395 24.4503 81.541 25.1397 81.541 25.9276C81.541 26.7031 81.6395 27.3864 81.8365 27.9773C82.0396 28.5682 82.332 29.0298 82.7136 29.3622C83.1014 29.6946 83.5753 29.8608 84.1355 29.8608ZM93.5854 33V14.0909H98.1003V21.2464H98.1926C98.3773 20.8156 98.6389 20.4001 98.9775 20C99.3221 19.5999 99.7592 19.2737 100.289 19.0213C100.824 18.7628 101.464 18.6335 102.209 18.6335C103.194 18.6335 104.114 18.892 104.97 19.4091C105.831 19.9261 106.527 20.7232 107.056 21.8004C107.586 22.8776 107.85 24.2502 107.85 25.9183C107.85 27.5249 107.595 28.8698 107.084 29.9531C106.579 31.0365 105.896 31.849 105.034 32.3906C104.179 32.9323 103.228 33.2031 102.181 33.2031C101.467 33.2031 100.849 33.0862 100.325 32.8523C99.8023 32.6184 99.3622 32.3106 99.0051 31.929C98.6543 31.5473 98.3835 31.138 98.1926 30.701H98.0542V33H93.5854ZM98.008 25.9091C98.008 26.6723 98.1096 27.3371 98.3127 27.9034C98.522 28.4697 98.8205 28.9098 99.2083 29.2237C99.6022 29.5315 100.073 29.6854 100.621 29.6854C101.175 29.6854 101.646 29.5315 102.034 29.2237C102.421 28.9098 102.714 28.4697 102.911 27.9034C103.114 27.3371 103.215 26.6723 103.215 25.9091C103.215 25.1458 103.114 24.4841 102.911 23.924C102.714 23.3639 102.421 22.9299 102.034 22.6222C101.652 22.3144 101.181 22.1605 100.621 22.1605C100.067 22.1605 99.5961 22.3113 99.2083 22.6129C98.8205 22.9145 98.522 23.3454 98.3127 23.9055C98.1096 24.4657 98.008 25.1335 98.008 25.9091ZM114.731 14.0909V33H110.216V14.0909H114.731ZM124.225 33.2678C122.735 33.2678 121.455 32.9631 120.384 32.3537C119.319 31.7382 118.497 30.8826 117.919 29.7869C117.346 28.6851 117.06 27.4079 117.06 25.9553C117.06 24.4964 117.346 23.2192 117.919 22.1236C118.497 21.0218 119.319 20.1662 120.384 19.5568C121.455 18.9413 122.735 18.6335 124.225 18.6335C125.715 18.6335 126.992 18.9413 128.057 19.5568C129.128 20.1662 129.949 21.0218 130.522 22.1236C131.1 23.2192 131.39 24.4964 131.39 25.9553C131.39 27.4079 131.1 28.6851 130.522 29.7869C129.949 30.8826 129.128 31.7382 128.057 32.3537C126.992 32.9631 125.715 33.2678 124.225 33.2678ZM124.253 29.8608C124.794 29.8608 125.253 29.6946 125.628 29.3622C126.004 29.0298 126.29 28.5682 126.487 27.9773C126.69 27.3864 126.792 26.7031 126.792 25.9276C126.792 25.1397 126.69 24.4503 126.487 23.8594C126.29 23.2685 126.004 22.8068 125.628 22.4744C125.253 22.142 124.794 21.9759 124.253 21.9759C123.693 21.9759 123.219 22.142 122.831 22.4744C122.449 22.8068 122.157 23.2685 121.954 23.8594C121.757 24.4503 121.658 25.1397 121.658 25.9276C121.658 26.7031 121.757 27.3864 121.954 27.9773C122.157 28.5682 122.449 29.0298 122.831 29.3622C123.219 29.6946 123.693 29.8608 124.253 29.8608ZM140.313 38.6136C138.965 38.6136 137.811 38.4259 136.851 38.0504C135.891 37.675 135.137 37.161 134.589 36.5085C134.041 35.8561 133.712 35.1174 133.601 34.2926L137.876 34.0526C137.956 34.3419 138.104 34.5942 138.319 34.8097C138.541 35.0251 138.827 35.1913 139.178 35.3082C139.535 35.4252 139.953 35.4837 140.433 35.4837C141.191 35.4837 141.815 35.299 142.308 34.9297C142.806 34.5665 143.056 33.9295 143.056 33.0185V30.5256H142.899C142.72 30.9626 142.449 31.3535 142.086 31.6982C141.723 32.0429 141.271 32.3137 140.729 32.5107C140.193 32.7076 139.578 32.8061 138.882 32.8061C137.848 32.8061 136.9 32.5661 136.039 32.0859C135.183 31.5997 134.497 30.8487 133.98 29.8331C133.469 28.8113 133.213 27.4972 133.213 25.8906C133.213 24.2348 133.478 22.8714 134.007 21.8004C134.537 20.7232 135.229 19.9261 136.085 19.4091C136.946 18.892 137.873 18.6335 138.864 18.6335C139.609 18.6335 140.246 18.7628 140.775 19.0213C141.311 19.2737 141.751 19.5999 142.095 20C142.44 20.4001 142.702 20.8156 142.88 21.2464H143.009V18.8182H147.506V33.0554C147.506 34.2557 147.204 35.2682 146.601 36.093C145.998 36.9179 145.155 37.5426 144.071 37.9673C142.988 38.3982 141.735 38.6136 140.313 38.6136ZM140.452 29.5192C141 29.5192 141.468 29.3745 141.855 29.0852C142.243 28.7959 142.542 28.3804 142.751 27.8388C142.96 27.2971 143.065 26.6477 143.065 25.8906C143.065 25.1212 142.96 24.4595 142.751 23.9055C142.548 23.3454 142.249 22.9145 141.855 22.6129C141.468 22.3113 141 22.1605 140.452 22.1605C139.892 22.1605 139.418 22.3144 139.03 22.6222C138.642 22.9299 138.347 23.3639 138.144 23.924C137.947 24.478 137.848 25.1335 137.848 25.8906C137.848 26.6477 137.95 27.2971 138.153 27.8388C138.356 28.3804 138.648 28.7959 139.03 29.0852C139.418 29.3745 139.892 29.5192 140.452 29.5192Z" fill="#3B82F6"/>
</svg>
